<svg xmlns="http://www.w3.org/2000/svg" xmlns:xlink="http://www.w3.org/1999/xlink" width="1280" zoomAndPan="magnify" viewBox="0 0 960 959.999988" height="1280" preserveAspectRatio="xMidYMid meet" version="1.0"><rect x="-96" width="1152" fill="#ffffff" y="-95.999999" height="1151.999986" fill-opacity="1"/><rect x="-96" width="1152" fill="#ffffff" y="-95.999999" height="1151.999986" fill-opacity="1"/><path fill="#ffffff" d="M 211.871094 0 L 748.167969 0 C 864.695312 0 960.039062 95.339844 960.039062 211.871094 L 960.039062 748.167969 C 960.039062 864.695312 864.695312 960.039062 748.167969 960.039062 L 211.871094 960.039062 C 95.339844 960.039062 0 864.695312 0 748.167969 L 0 211.871094 C 0 95.339844 95.339844 0 211.871094 0 " fill-opacity="1" fill-rule="evenodd"/><path fill="#8c52ff" d="M 383.820312 553.015625 L 658.078125 278.765625 C 681.683594 255.160156 719.96875 255.160156 743.574219 278.765625 C 767.183594 302.371094 767.183594 340.660156 743.574219 364.265625 L 426.890625 680.949219 C 426.78125 681.058594 426.683594 681.164062 426.578125 681.273438 C 402.96875 704.878906 364.675781 704.878906 341.070312 681.273438 L 329.664062 669.871094 L 329.671875 669.863281 L 216.460938 556.664062 C 192.855469 533.058594 192.855469 494.761719 216.460938 471.15625 C 240.070312 447.550781 278.363281 447.550781 301.96875 471.15625 L 383.820312 553.015625 " fill-opacity="1" fill-rule="evenodd"/></svg>