<svg xmlns="http://www.w3.org/2000/svg" xmlns:xlink="http://www.w3.org/1999/xlink" width="1280" zoomAndPan="magnify" viewBox="0 0 960 959.999988" height="1280" preserveAspectRatio="xMidYMid meet" version="1.0"><rect x="-96" width="1152" fill="#ffffff" y="-95.999999" height="1151.999986" fill-opacity="1"/><rect x="-96" width="1152" fill="#ffffff" y="-95.999999" height="1151.999986" fill-opacity="1"/><path fill="#8c52ff" d="M 480 0 C 472.144531 0 464.292969 0.191406 456.449219 0.578125 C 448.601562 0.964844 440.769531 1.542969 432.953125 2.3125 C 425.132812 3.082031 417.339844 4.042969 409.570312 5.195312 C 401.800781 6.347656 394.0625 7.691406 386.355469 9.222656 C 378.652344 10.753906 370.988281 12.476562 363.371094 14.386719 C 355.75 16.292969 348.179688 18.386719 340.664062 20.667969 C 333.144531 22.949219 325.6875 25.414062 318.292969 28.058594 C 310.894531 30.707031 303.570312 33.53125 296.3125 36.539062 C 289.054688 39.542969 281.875 42.726562 274.773438 46.085938 C 267.671875 49.445312 260.65625 52.976562 253.730469 56.679688 C 246.800781 60.382812 239.96875 64.25 233.230469 68.289062 C 226.492188 72.328125 219.859375 76.53125 213.328125 80.894531 C 206.792969 85.257812 200.375 89.78125 194.0625 94.460938 C 187.753906 99.140625 181.5625 103.972656 175.492188 108.953125 C 169.417969 113.9375 163.472656 119.066406 157.652344 124.34375 C 151.832031 129.617188 146.144531 135.035156 140.589844 140.589844 C 135.035156 146.144531 129.617188 151.832031 124.34375 157.652344 C 119.066406 163.472656 113.9375 169.417969 108.953125 175.492188 C 103.972656 181.5625 99.140625 187.753906 94.460938 194.0625 C 89.78125 200.375 85.257812 206.792969 80.894531 213.328125 C 76.53125 219.859375 72.328125 226.492188 68.289062 233.230469 C 64.25 239.96875 60.378906 246.800781 56.679688 253.730469 C 52.976562 260.65625 49.445312 267.671875 46.085938 274.773438 C 42.726562 281.875 39.542969 289.054688 36.539062 296.3125 C 33.53125 303.570312 30.707031 310.898438 28.058594 318.292969 C 25.414062 325.6875 22.949219 333.144531 20.667969 340.664062 C 18.386719 348.179688 16.292969 355.75 14.386719 363.371094 C 12.476562 370.988281 10.753906 378.652344 9.222656 386.355469 C 7.691406 394.0625 6.347656 401.800781 5.195312 409.570312 C 4.042969 417.339844 3.082031 425.132812 2.3125 432.953125 C 1.542969 440.769531 0.964844 448.601562 0.578125 456.449219 C 0.191406 464.292969 0 472.144531 0 480 C 0 487.855469 0.191406 495.707031 0.578125 503.550781 C 0.964844 511.398438 1.542969 519.230469 2.3125 527.046875 C 3.082031 534.867188 4.042969 542.660156 5.195312 550.429688 C 6.347656 558.199219 7.691406 565.9375 9.222656 573.644531 C 10.753906 581.347656 12.476562 589.011719 14.386719 596.628906 C 16.292969 604.25 18.386719 611.820312 20.667969 619.335938 C 22.949219 626.855469 25.414062 634.3125 28.058594 641.707031 C 30.707031 649.101562 33.53125 656.429688 36.539062 663.6875 C 39.542969 670.945312 42.726562 678.125 46.085938 685.226562 C 49.445312 692.328125 52.976562 699.34375 56.679688 706.269531 C 60.382812 713.199219 64.25 720.03125 68.289062 726.769531 C 72.328125 733.507812 76.53125 740.140625 80.894531 746.671875 C 85.257812 753.207031 89.78125 759.625 94.460938 765.9375 C 99.140625 772.246094 103.972656 778.4375 108.953125 784.507812 C 113.9375 790.582031 119.066406 796.527344 124.34375 802.347656 C 129.617188 808.167969 135.035156 813.855469 140.589844 819.410156 C 146.144531 824.964844 151.832031 830.382812 157.652344 835.65625 C 163.472656 840.933594 169.417969 846.0625 175.492188 851.046875 C 181.5625 856.027344 187.753906 860.859375 194.0625 865.539062 C 200.375 870.21875 206.792969 874.742188 213.328125 879.105469 C 219.859375 883.46875 226.492188 887.671875 233.230469 891.710938 C 239.96875 895.75 246.800781 899.617188 253.730469 903.320312 C 260.65625 907.023438 267.671875 910.554688 274.773438 913.914062 C 281.875 917.273438 289.054688 920.457031 296.3125 923.460938 C 303.570312 926.46875 310.894531 929.292969 318.292969 931.941406 C 325.6875 934.585938 333.144531 937.050781 340.664062 939.332031 C 348.179688 941.613281 355.75 943.707031 363.371094 945.613281 C 370.988281 947.523438 378.652344 949.246094 386.355469 950.777344 C 394.0625 952.308594 401.800781 953.652344 409.570312 954.804688 C 417.339844 955.957031 425.132812 956.917969 432.953125 957.6875 C 440.769531 958.457031 448.601562 959.035156 456.449219 959.421875 C 464.292969 959.808594 472.144531 960 480 960 C 487.855469 960 495.707031 959.808594 503.550781 959.421875 C 511.398438 959.035156 519.230469 958.457031 527.046875 957.6875 C 534.867188 956.917969 542.660156 955.957031 550.429688 954.804688 C 558.199219 953.652344 565.9375 952.308594 573.644531 950.777344 C 581.347656 949.246094 589.011719 947.523438 596.628906 945.613281 C 604.25 943.707031 611.820312 941.613281 619.335938 939.332031 C 626.855469 937.050781 634.3125 934.585938 641.707031 931.941406 C 649.101562 929.292969 656.429688 926.46875 663.6875 923.460938 C 670.945312 920.457031 678.125 917.273438 685.226562 913.914062 C 692.328125 910.554688 699.34375 907.023438 706.269531 903.320312 C 713.199219 899.617188 720.03125 895.75 726.769531 891.710938 C 733.507812 887.671875 740.140625 883.46875 746.671875 879.105469 C 753.207031 874.742188 759.625 870.21875 765.9375 865.539062 C 772.246094 860.859375 778.4375 856.027344 784.507812 851.046875 C 790.582031 846.0625 796.527344 840.933594 802.347656 835.65625 C 808.167969 830.382812 813.855469 824.964844 819.410156 819.410156 C 824.964844 813.855469 830.382812 808.167969 835.65625 802.347656 C 840.933594 796.527344 846.0625 790.582031 851.046875 784.507812 C 856.027344 778.4375 860.859375 772.246094 865.539062 765.9375 C 870.21875 759.625 874.742188 753.207031 879.105469 746.671875 C 883.46875 740.140625 887.671875 733.507812 891.710938 726.769531 C 895.75 720.03125 899.617188 713.199219 903.320312 706.269531 C 907.023438 699.34375 910.554688 692.328125 913.914062 685.226562 C 917.273438 678.125 920.457031 670.945312 923.460938 663.6875 C 926.46875 656.429688 929.292969 649.101562 931.941406 641.707031 C 934.585938 634.3125 937.050781 626.855469 939.332031 619.335938 C 941.613281 611.820312 943.707031 604.25 945.613281 596.628906 C 947.523438 589.011719 949.246094 581.347656 950.777344 573.644531 C 952.308594 565.9375 953.652344 558.199219 954.804688 550.429688 C 955.957031 542.660156 956.917969 534.867188 957.6875 527.046875 C 958.457031 519.230469 959.035156 511.398438 959.421875 503.550781 C 959.808594 495.707031 960 487.855469 960 480 C 959.992188 472.148438 959.792969 464.296875 959.398438 456.453125 C 959.007812 448.609375 958.421875 440.78125 957.648438 432.964844 C 956.871094 425.152344 955.902344 417.359375 954.746094 409.59375 C 953.585938 401.824219 952.238281 394.089844 950.703125 386.386719 C 949.164062 378.6875 947.4375 371.027344 945.523438 363.410156 C 943.613281 355.792969 941.511719 348.226562 939.230469 340.714844 C 936.945312 333.199219 934.476562 325.746094 931.828125 318.355469 C 929.179688 310.960938 926.347656 303.636719 923.339844 296.382812 C 920.332031 289.128906 917.148438 281.953125 913.785156 274.855469 C 910.425781 267.757812 906.890625 260.746094 903.1875 253.820312 C 899.484375 246.894531 895.609375 240.066406 891.570312 233.332031 C 887.53125 226.59375 883.328125 219.964844 878.964844 213.433594 C 874.601562 206.90625 870.078125 200.488281 865.398438 194.179688 C 860.71875 187.871094 855.886719 181.683594 850.90625 175.613281 C 845.921875 169.542969 840.792969 163.597656 835.519531 157.78125 C 830.246094 151.960938 824.832031 146.277344 819.277344 140.722656 C 813.722656 135.167969 808.039062 129.753906 802.21875 124.480469 C 796.402344 119.207031 790.457031 114.078125 784.386719 109.09375 C 778.316406 104.113281 772.128906 99.28125 765.820312 94.601562 C 759.511719 89.921875 753.09375 85.398438 746.566406 81.035156 C 740.035156 76.671875 733.40625 72.46875 726.671875 68.429688 C 719.933594 64.390625 713.105469 60.515625 706.179688 56.8125 C 699.253906 53.109375 692.242188 49.574219 685.144531 46.214844 C 678.046875 42.855469 670.871094 39.667969 663.617188 36.660156 C 656.363281 33.652344 649.039062 30.820312 641.644531 28.171875 C 634.253906 25.523438 626.800781 23.054688 619.285156 20.769531 C 611.773438 18.488281 604.207031 16.386719 596.589844 14.476562 C 588.972656 12.5625 581.3125 10.835938 573.613281 9.296875 C 565.910156 7.761719 558.175781 6.414062 550.40625 5.253906 C 542.640625 4.097656 534.847656 3.128906 527.035156 2.351562 C 519.21875 1.578125 511.390625 0.992188 503.546875 0.601562 C 495.703125 0.207031 487.855469 0.0078125 480 0 Z M 719.085938 500.113281 L 353.371094 692.570312 C 350.023438 694.046875 346.515625 694.808594 342.855469 694.855469 C 340.765625 694.902344 338.707031 694.652344 336.683594 694.109375 C 334.664062 693.5625 332.757812 692.746094 330.972656 691.65625 C 329.285156 690.632812 327.761719 689.410156 326.390625 687.988281 C 325.023438 686.566406 323.859375 684.996094 322.898438 683.273438 C 321.9375 681.550781 321.210938 679.734375 320.71875 677.824219 C 320.226562 675.914062 319.988281 673.972656 320 672 L 320 288 C 319.988281 286.027344 320.226562 284.085938 320.71875 282.175781 C 321.210938 280.265625 321.9375 278.449219 322.898438 276.726562 C 323.859375 275.003906 325.023438 273.433594 326.390625 272.011719 C 327.761719 270.589844 329.285156 269.367188 330.972656 268.34375 C 332.679688 267.382812 334.484375 266.652344 336.382812 266.15625 C 338.28125 265.660156 340.210938 265.410156 342.171875 265.410156 C 344.132812 265.410156 346.0625 265.660156 347.960938 266.15625 C 349.859375 266.652344 351.660156 267.382812 353.371094 268.34375 L 719.085938 460.800781 C 720.023438 461.257812 720.921875 461.78125 721.785156 462.363281 C 722.648438 462.949219 723.464844 463.589844 724.238281 464.289062 C 725.015625 464.988281 725.734375 465.738281 726.40625 466.535156 C 727.074219 467.335938 727.683594 468.175781 728.234375 469.0625 C 728.785156 469.945312 729.273438 470.867188 729.699219 471.816406 C 730.121094 472.769531 730.476562 473.75 730.761719 474.75 C 731.050781 475.753906 731.265625 476.769531 731.410156 477.800781 C 731.554688 478.835938 731.628906 479.871094 731.628906 480.914062 C 731.628906 481.957031 731.554688 482.996094 731.410156 484.027344 C 731.265625 485.058594 731.050781 486.074219 730.761719 487.078125 C 730.476562 488.082031 730.121094 489.058594 729.699219 490.011719 C 729.273438 490.964844 728.785156 491.882812 728.234375 492.765625 C 727.683594 493.652344 727.074219 494.492188 726.40625 495.292969 C 725.734375 496.089844 725.015625 496.839844 724.238281 497.539062 C 723.464844 498.238281 722.648438 498.878906 721.785156 499.464844 C 720.921875 500.046875 720.023438 500.570312 719.085938 501.027344 Z M 719.085938 500.113281 " fill-opacity="1" fill-rule="nonzero"/></svg>